<svg width="16" height="17" viewBox="0 0 16 17" fill="none" xmlns="http://www.w3.org/2000/svg">
<g id="Frame">
<path id="Union" fill-rule="evenodd" clip-rule="evenodd" d="M7.67863 13.0666C7.85614 13.2441 8.14395 13.2441 8.32146 13.0666C8.49897 12.8891 8.49897 12.6013 8.32146 12.4237L4.85523 8.95752L12.2422 8.95752C12.4933 8.95752 12.6968 8.75401 12.6968 8.50297C12.6968 8.25194 12.4933 8.04843 12.2422 8.04843L4.85475 8.04843L8.32146 4.58173C8.49897 4.40421 8.49897 4.11641 8.32146 3.9389C8.14395 3.76139 7.85614 3.76139 7.67863 3.9389L3.43636 8.18117C3.35388 8.26346 3.30284 8.37725 3.30284 8.50297C3.30284 8.63478 3.35894 8.75348 3.44856 8.8365L7.67863 13.0666Z" fill="currentColor"/>
</g>
</svg>
