<svg width="24" height="25" viewBox="0 0 24 25" fill="none" xmlns="http://www.w3.org/2000/svg">
<g id="Frame">
<path id="Vector" d="M22.5406 6.61336C22.4218 6.13877 22.1799 5.70393 21.8392 5.35277C21.4986 5.0016 21.0713 4.74654 20.6006 4.61336C18.8806 4.19336 12.0006 4.19336 12.0006 4.19336C12.0006 4.19336 5.12057 4.19336 3.40057 4.65336C2.92982 4.78654 2.50255 5.0416 2.16192 5.39277C1.82129 5.74393 1.57936 6.17877 1.46057 6.65336C1.14579 8.39891 0.991808 10.1697 1.00057 11.9434C0.989351 13.7304 1.14334 15.5147 1.46057 17.2734C1.59153 17.7332 1.83888 18.1515 2.17872 18.4878C2.51855 18.8242 2.93939 19.0672 3.40057 19.1934C5.12057 19.6534 12.0006 19.6534 12.0006 19.6534C12.0006 19.6534 18.8806 19.6534 20.6006 19.1934C21.0713 19.0602 21.4986 18.8051 21.8392 18.454C22.1799 18.1028 22.4218 17.6679 22.5406 17.1934C22.8529 15.4609 23.0069 13.7037 23.0006 11.9434C23.0118 10.1563 22.8578 8.37206 22.5406 6.61336Z" stroke="currentColor" stroke-width="1.5" stroke-linecap="round" stroke-linejoin="round"/>
<path id="Vector_2" d="M9.75 15.2138L15.5 11.9438L9.75 8.67383V15.2138Z" stroke="currentColor" stroke-width="1.5" stroke-linecap="round" stroke-linejoin="round"/>
</g>
</svg>
